<?xml version="1.0" encoding="UTF-8"?><svg id="c" xmlns="http://www.w3.org/2000/svg" viewBox="0 0 500 500"><path d="M320.469,221.156h-110.899v40.587c0,22.306,17.999,40.418,40.271,40.581v40.593c-14.668-.056-28.417-4.002-40.271-10.863-12.323-7.125-22.599-17.402-29.724-29.724-6.905-11.939-10.863-25.801-10.863-40.587V121.114c12.565-7.266,26.19-12.898,40.587-16.601v76.056h40.587c6.9,0,13.602.862,20,2.48,7.187,1.826,13.991,4.606,20.271,8.202.107.062.214.118.316.18,5.524,3.196,10.632,7.018,15.231,11.381,5.665,5.361,10.558,11.539,14.493,18.343Z" fill="#fff"/><path d="M412.191,248.613v10.231c-.643,10.316-2.249,20.372-4.73,30.08-.023.09-.045.18-.073.276-3.461,13.456-8.608,26.235-15.198,38.107-.457.829-.93,1.657-1.404,2.48-5.417,9.369-11.748,18.146-18.867,26.212-.102.118-.209.237-.316.361-1.505,1.697-3.05,3.365-4.628,4.994-3.022,3.129-6.167,6.139-9.431,9.019-8.067,7.12-16.844,13.45-26.212,18.867l-.316.18c-12.475,7.182-25.993,12.751-40.271,16.421-.107.028-.214.056-.316.085-12.881,3.286-26.37,5.034-40.271,5.034h-.316c-13.901-.028-27.396-1.798-40.271-5.118-14.397-3.704-28.022-9.335-40.587-16.601-9.369-5.417-18.146-11.748-26.212-18.867-5.085-4.487-9.887-9.29-14.375-14.375-7.12-8.067-13.45-16.844-18.867-26.212-7.266-12.565-12.898-26.19-16.601-40.587-3.343-12.977-5.118-26.573-5.118-40.587s1.776-27.61,5.118-40.587c3.704-14.397,9.335-28.022,16.601-40.587,5.417-9.369,11.748-18.146,18.867-26.212v107.387h.316c0,14.234,2.446,27.898,6.951,40.587,5.361,15.136,13.642,28.89,24.166,40.587,2.886,3.213,5.942,6.269,9.155,9.155,11.697,10.524,25.451,18.805,40.587,24.172,12.599,4.465,26.15,6.911,40.271,6.945v.316h.316v-.316c14.115,0,27.672-2.407,40.271-6.838.107-.039.214-.073.316-.113,1.561-.552,3.1-1.133,4.628-1.753,13.18-5.288,25.22-12.824,35.643-22.131.056-.045.107-.09.158-.141.051.051.101.096.158.141v-.282c3.213-2.886,6.268-5.941,9.155-9.155,6.088-6.77,11.426-14.228,15.885-22.244,3.241-5.834,6.02-11.968,8.281-18.343h-109.692c-.028-.096-4.803-40.587-4.803-40.587h162.033Z" fill="#fff"/><path d="M390.786,170.213h-50.3c-2.886-3.213-5.942-6.268-9.155-9.155l-.316-.282c-10.417-9.312-22.458-16.844-35.638-22.137-1.528-.614-3.072-1.195-4.634-1.748l-.316-.113c-12.599-4.431-26.156-6.838-40.271-6.838v-40.903c13.901,0,27.391,1.747,40.271,5.034.101.028.209.056.316.085,14.279,3.67,27.797,9.239,40.271,16.421,0,0,.259.147.316.18,9.369,5.417,18.146,11.748,26.212,18.867,3.258,2.875,6.404,5.885,9.425,9.014,1.578,1.635,3.123,3.303,4.634,5,.107.124.214.242.316.361,7.12,8.067,13.45,16.844,18.867,26.212Z" fill="#fff"/></svg>